<?xml version="1.0" ?><!DOCTYPE svg  PUBLIC '-//W3C//DTD SVG 1.1//EN'  'http://www.w3.org/Graphics/SVG/1.1/DTD/svg11.dtd'><svg height="96" version="1.1" viewBox="0 0 96 96" width="96" xmlns="http://www.w3.org/2000/svg" xmlns:xlink="http://www.w3.org/1999/xlink"><path d="M72 0c-8.836 0-16 7.164-16 16s7.164 16 16 16 16-7.164 16-16-7.164-16-16-16v0z" fill="#000000"/><path d="M94 96h-48c-1.104 0-2-0.9-2-2v-18h-22c-1.1 0-2-0.9-2-2v-14h-18c-1.1 0-2-0.9-2-2v-16.844c0-8.228 8.176-13.32 15.752-13.32 5.5 0 10.876 2.6 13.82 6.532 3.064-1.72 6.508-2.616 10.080-2.616 6.352 0 12.412 2.884 16.252 7.616 4.024-2.208 8.696-3.368 13.62-3.368 14.844 0 26.476 10.212 26.476 23.252v34.752c0 1.096-0.896 1.996-2 1.996z" fill="#000000"/><path d="M40 4c-6.628 0-12 5.376-12 12s5.372 12 12 12 12-5.376 12-12-5.368-12-12-12v0z" fill="#000000"/><path d="M16 8c-4.416 0-8 3.584-8 8s3.584 8 8 8 8-3.584 8-8-3.584-8-8-8v0z" fill="#000000"/></svg>